<?xml version="1.0" encoding="utf-8"?>
<!-- Generator: Adobe Illustrator 23.0.2, SVG Export Plug-In . SVG Version: 6.00 Build 0)  -->
<svg version="1.1" id="Layer_1" xmlns="http://www.w3.org/2000/svg" xmlns:xlink="http://www.w3.org/1999/xlink" x="0px" y="0px"
	 viewBox="0 0 7554.52 468.26" style="enable-background:new 0 0 7554.52 468.26;" xml:space="preserve">
<style type="text/css">
	.st0{fill:#FFFFFF;}
	.st1{clip-path:url(#SVGID_2_);fill:#FFFFFF;}
</style>
<g>
	<polygon class="st0" points="1320.34,9.01 1320.34,369.86 1036.7,9.01 989.07,9.01 989.07,459.25 1038.62,459.25 1038.62,90.08 
		1329.34,459.25 1369.84,459.25 1369.84,9.01 	"/>
	<polygon class="st0" points="1524.2,9.01 1524.2,55.98 1675.35,55.98 1675.35,459.25 1726.81,459.25 1726.81,55.98 1877.96,55.98 
		1877.96,9.01 	"/>
	<rect x="2034.25" y="9.02" class="st0" width="50.82" height="450.26"/>
	<polygon class="st0" points="2607.96,9.01 2607.96,369.86 2324.3,9.01 2276.69,9.01 2276.69,459.25 2326.24,459.25 2326.24,90.08 
		2616.96,459.25 2657.46,459.25 2657.46,9.01 	"/>
	<polygon class="st0" points="3328.91,9.01 3328.91,459.25 3633.15,459.25 3633.15,412.3 3379.73,412.3 3379.73,9.01 	"/>
	<g>
		<defs>
			<rect id="SVGID_1_" x="0" y="0.02" width="7554.51" height="468.24"/>
		</defs>
		<clipPath id="SVGID_2_">
			<use xlink:href="#SVGID_1_"  style="overflow:visible;"/>
		</clipPath>
		<path class="st1" d="M3780.42,235.43v-1.28C3780.42,102.92,3881.38,0,4017.74,0c92.01,0,151.17,38.61,191.03,93.92l-93.9,72.68
			c-25.73-32.16-55.29-52.74-98.41-52.74c-63.04,0-107.41,53.4-107.41,118.99v1.3c0,67.53,44.37,120.27,107.41,120.27
			c46.95,0,74.62-21.86,101.63-54.68l93.92,66.89c-42.46,58.53-99.71,101.62-199.4,101.62
			C3883.96,468.26,3780.42,369.85,3780.42,235.43"/>
		<path class="st1" d="M4646.13,235.43v-1.28c0-64.98-46.95-121.59-115.78-121.59c-68.17,0-113.84,55.34-113.84,120.29v1.3
			c0,64.95,46.95,121.57,115.12,121.57C4600.46,355.72,4646.13,300.38,4646.13,235.43 M4288.52,235.43v-1.28
			C4288.52,104.86,4392.72,0,4531.63,0c138.93,0,241.84,103.56,241.84,232.85v1.3c0,129.29-104.18,234.11-243.11,234.11
			S4288.52,364.72,4288.52,235.43"/>
	</g>
	<polygon class="st0" points="5217.25,9.01 5109.84,183.32 5002.42,9.01 4870.58,9.01 4870.58,459.25 4992.78,459.25 4992.78,202 
		5107.26,376.93 5109.84,376.93 5224.98,200.69 5224.98,459.25 5349.12,459.25 5349.12,9.01 	"/>
	<polygon class="st0" points="5839.85,9.01 5732.43,183.32 5625.02,9.01 5493.15,9.01 5493.15,459.25 5615.36,459.25 5615.36,202 
		5729.84,376.93 5732.43,376.93 5847.55,200.69 5847.55,459.25 5971.72,459.25 5971.72,9.01 	"/>
	<g>
		<path class="st0" d="M6419.34,235.43v-1.28c0-64.98-46.95-121.59-115.78-121.59c-68.17,0-113.84,55.34-113.84,120.29v1.3
			c0,64.95,46.95,121.57,115.12,121.57C6373.69,355.72,6419.34,300.38,6419.34,235.43 M6061.73,235.43v-1.28
			C6061.73,104.86,6165.93,0,6304.84,0c138.93,0,241.84,103.56,241.84,232.85v1.3c0,129.29-104.18,234.11-243.11,234.11
			S6061.73,364.72,6061.73,235.43"/>
	</g>
	<polygon class="st0" points="6946.08,9.01 6946.08,247 6760.83,9.01 6644.41,9.01 6644.41,459.25 6767.9,459.25 6767.9,212.28 
		6960.23,459.25 7069.56,459.25 7069.56,9.01 	"/>
	<g>
		<path class="st0" d="M7161.52,392.37l69.47-82.98c44.38,35.39,93.9,54.04,146.02,54.04c33.43,0,51.44-11.58,51.44-30.88v-1.28
			c0-18.66-14.79-28.94-75.89-43.1c-95.84-21.88-169.81-48.89-169.81-141.49v-1.3c0-83.62,66.25-144.08,174.33-144.08
			c76.53,0,136.36,20.58,185.22,59.83l-62.38,88.11c-41.16-28.94-86.2-44.37-126.08-44.37c-30.22,0-45.01,12.85-45.01,28.94v1.28
			c0,20.6,15.43,29.58,77.81,43.74c103.56,22.52,167.88,55.97,167.88,140.21v1.3c0,91.98-72.66,146.66-182.03,146.66
			C7292.73,466.99,7216.84,441.9,7161.52,392.37"/>
		<path class="st0" d="M181.92,209.7c-99.05-21.24-122.21-45.03-122.21-87.49v-1.28c0-40.52,37.29-72.68,95.81-72.68
			c46.33,0,88.13,14.79,129.93,48.87l22.33-44.67C264.35,19.52,218.98,2.6,156.83,2.6C71.3,2.6,8.9,54.68,8.9,125.44v1.28
			c0,73.98,47.61,107.44,151.15,129.93c94.56,19.94,117.08,43.74,117.08,85.56v1.28c0,44.37-39.88,76.53-100.33,76.53
			c-62.4,0-107.41-21.22-154.38-63.68l-0.02,0.04L0,401.2c51.53,42.97,107.44,64.49,174.84,64.49
			c89.41,0,153.75-50.16,153.75-127.36v-1.28C328.58,268.23,282.25,231.56,181.92,209.7"/>
	</g>
	<polygon class="st0" points="504.78,9.01 504.78,459.27 830.26,459.27 830.26,412.96 555.62,412.96 555.62,255.36 801.31,255.36 
		801.31,209.07 555.62,209.07 555.62,55.32 807.12,55.32 830.26,9.01 	"/>
	<polygon class="st0" points="2846.53,9.01 2846.53,459.27 3172,459.27 3172,412.96 2897.35,412.96 2897.35,255.36 3143.06,255.36 
		3143.06,209.07 2897.35,209.07 2897.35,55.32 3148.87,55.32 3172,9.01 	"/>
</g>
</svg>
